<svg viewBox="0 0 66.91 29.63">
  <path d="M10.2 27.97c-1.5-1.6-1.53-1.68-.81-2 .61-.28.97-.11 2.07.96 1.27 1.24 1.43 1.3 3.8 1.3h2.46l.95-1.95c.73-1.48.1-1.5.1-1.5s-5.83-2.3-7.22-3.5c-4.16-3.55-3.07-7.97 2.7-11 .96-.51 7.24-2.17 8.2-2.17.38 0 1.2-.55 1.82-1.23.62-.68 1.33-1.24 1.6-1.24.31 0 .47-.46.47-1.4V2.81H13.07C1.12 2.82-.18 2.77.02 2.26c.11-.3.21-.62.21-.7 0-.08 5.87-.15 13.05-.15 12.82 0 13.06-.01 13.06-.7 0-.47.23-.71.7-.71s.7.24.7.7c0 .7.24.71 13.6.71 13.49 0 13.6 0 13.22.7-.37.7-.74.71-13.6.71H27.75s-.24 2.85.5 2.84c2.07-.02 11.11-.02 11.11-.02l.9 1.33s.45.98.36 1.15c-.1.2-.87.27-.87.27s-.5.01-.62.34c-.15.42.23.65.23.65l1.04.88 9.11-.92c5-.5 9.42-.98 9.81-1.06.43-.1 1.3-1.18 2.24-2.8l1.53-2.66h1.9a7.3 7.3 0 0 1 1.92.13c0 .07-.72 1.76-1.6 3.75-.86 2-1.58 3.9-1.58 4.24 0 .34.4 1.5.88 2.6l.88 1.98h-1.93c-1.8 0-2-.1-3.28-1.45l-1.36-1.46-5.74 1.65c-7.83 2.24-12.06 4.04-14.2 6.05a17.55 17.55 0 0 1-8.22 4.06c-2.16.43-2.26.49-2.48 1.64-.12.66-.32 2.18-.32 2.18s.52.03 4.69.03c4.74 0 4.98.04 4.98.7 0 .7-.24.71-12.94.71H11.75zm16.27.25s.3-1.26.43-2.07l.24-1.48-3.13.1-3.12.1-.8 1.41c-.44.78-.81 1.98-.81 1.98zM17.7 17.91c.56-.62 4.79-8.1 4.65-8.24-.28-.28-5.07.98-6.97 1.83-3.43 1.54-5.32 4.45-4.22 6.5.4.76.57.78 3.28.58 1.58-.13 3.04-.42 3.26-.67zm8.72-4.33c.6-1.16 1.16-2.33 1.67-3.53 0-.1-.72-.17-1.6-.17h-1.6l-1.57 3.4a71.3 71.3 0 0 0-1.58 3.52c-.84 1.56 1.79.03 3.02.13z"/>
</svg>
