<svg version="1" xmlns="http://www.w3.org/2000/svg" width="200" height="200" viewBox="0 0 150.000000 150.000000"><path d="M56.5 1.5C43.1 3.7 34.9 6 26 10.2 16.4 14.8 6.3 23.5 3 30 .7 34.4-.6 41 .6 41.9c.5.3 1.9 2.6 3.2 5.1 1.3 2.5 4.5 8.5 7.2 13.5 2.6 4.9 6.9 13 9.5 18 2.6 4.9 6.7 12.7 9.2 17.3 4.1 7.7 4.5 8.8 4.7 17 .3 7.1.9 9.8 3.2 14.7 3.6 7.7 11.4 15.5 19 19.1 5.1 2.4 7.1 2.8 15.4 2.8 8.6.1 10.1-.2 16-3 13.7-6.6 21.2-17.7 22.3-32.9.3-4.4 2.8-9.3 19.5-38.4 11.8-20.4 19.2-34.3 19.2-36 0-1.4-1.1-4.9-2.4-7.7C140.1 17.5 121.2 6.5 96 2 86.7.3 65.9.1 56.5 1.5zM35 42.7c.4.4 3.7 9.3 7.4 19.7L49 81.3 44.6 86c-2.4 2.6-5.1 6.1-6.1 7.9-.9 1.8-1.8 3.1-1.9 2.9-.2-.1-3.6-6.6-7.6-14.3-4-7.7-8.3-15.8-9.5-18C16.2 58.6 8 42.9 8 42.5c0-1.3 25.8-1.1 27 .2zm70.1-.8c1.3.1.6 2.7-3.8 14.3-3 7.9-5.6 14.7-5.7 15.3-.2.8-2.5 6.1-3.2 7.3 0 .1-2.3-.7-5-1.9-7.5-3.2-19.3-3.7-27.1-1-7.6 2.6-7 2.6-7.6-.2-.2-1.2-2.9-9.3-6-17.9-4.6-13.1-5.2-15.7-3.9-16 1.2-.2 55.4-.1 62.3.1zm36.1 1.2c-.4 1.4-29.8 53.4-31.5 55.6-.6.9-1.6-.1-3.3-3.5-1.3-2.7-3.9-6.6-5.8-8.8l-3.4-3.9 4.4-11.5c2.4-6.3 6-15.6 7.9-20.5l3.5-9 14.3.1c11.4.2 14.1.4 13.9 1.5z"/></svg>