<svg version="1" xmlns="http://www.w3.org/2000/svg" width="682.667" height="682.667" viewBox="0 0 512.000000 512.000000"><path d="M228.9 1.4c-.2.2-4.9.7-10.4 1-33.1 2.3-74.5 11.3-105.5 23C88.5 34.6 64.3 47.9 47.9 61 13.1 88.9-2.6 121.6 2.7 154.8c.7 4.7 1.7 9 2.2 9.6.8 1.1 13.4 22.7 22.2 38.3 1.2 2.1 11 19.3 21.9 38.3 10.9 19 20.7 36.1 21.7 38 1.1 1.9 7.3 12.6 13.6 23.7 6.4 11.1 12.7 22.1 14.1 24.5 1.3 2.3 8 14 14.9 25.9l12.4 21.7.6 12.3c.3 6.8.9 13.5 1.2 14.9l2.1 10.5c3.4 18.3 17.5 43.7 33.1 59.9 18.2 18.8 45.4 33.5 68.8 37.2 1.7.3 4.1.8 5.5 1 4.9 1.1 29.6 1.2 36 .3 31.8-4.6 60-19.7 80.6-43.1 14.9-17 25.8-38.9 29.9-60.3 1.8-9.6 2.2-14.4 2.4-26l.1-9 11.3-19.5c6.3-10.7 19.3-33 28.9-49.5 9.6-16.5 23.3-40.1 30.5-52.5 7.2-12.4 14-24.1 15.1-26 1.2-1.9 4-6.9 6.4-11 2.3-4.1 6.4-11 9-15.3 2.6-4.3 4.8-8 4.8-8.2 0-.2 3.6-6.5 7.9-13.9 8.4-14.4 9.9-18.8 10.4-31.1 1.4-34.8-20.8-68.9-62.6-96.2-10.6-6.9-35.2-18.9-49.2-24.1-10.7-4-35.5-11.7-40.5-12.6-1.4-.2-4.7-1-7.5-1.6-6-1.4-5.9-1.4-20.5-3.9-11.3-1.9-14.3-2.4-24.5-3.5-2.7-.3-7.2-.9-10-1.2-5.5-.6-66-1.6-66.6-1zm37.6 143c8.8.7 13.1 1 24.5 2 3 .3 9.6.8 14.5 1.2 5 .3 9.3.8 9.6 1 .3.2-2.9 13.1-7.1 28.6-4.3 15.6-10.7 39.3-14.4 52.7-3.6 13.4-6.7 24.5-6.9 24.7-.2.2-4.6-.2-9.8-1-17.3-2.6-37.1-1.7-53.1 2.4-4.3 1.1-7.9 2-8.1 2-.6 0-2.3-6.2-5.1-18-1.4-5.8-5.3-21.5-8.6-35-3.4-13.5-6.3-25.4-6.6-26.5-.2-1.1-1.9-8.1-3.8-15.5l-3.3-13.5 3.6-.6c2-.4 7.9-1 13.1-1.3 5.2-.4 11.5-.9 14-1.1 7.2-.7 16.8-1.4 27-2.1 5.2-.3 9.7-.8 9.9-1 .2-.2.7-.2 1 0 .3.2 4.7.7 9.6 1zM161.7 160c1.2 4.7 2.4 9.6 2.7 11 .4 2.2 5.6 23.4 12.5 51 1.2 4.7 2.4 9.6 2.7 11 .6 2.7 8.2 33.5 8.9 36 .3 1-1.2 2.6-4.3 4.5-4.7 3-15.4 11.7-20.2 16.5-8.5 8.3-20.3 24.7-23.6 32.5-1.7 4.1-2.6 4.4-4.2 1.2-.6-1.2-2.4-4.5-4-7.2-15.3-26.6-34.4-59.9-36.4-63.5-1.4-2.5-3.9-6.9-5.7-9.8-1.7-2.9-3.1-5.7-3.1-6.2 0-.4-.3-1-.7-1.2-.5-.2-1.6-1.9-2.7-3.8-1-1.9-10.6-18.7-21.3-37.4-10.7-18.6-19.3-34-19.1-34.2.2-.2 4.4-.5 9.3-.8 10.4-.7 20.5-1.5 25.5-2.1 1.9-.3 7.8-.7 13-1.1 5.2-.3 11.1-.7 13-.9 1.9-.2 8.2-.7 14-1 5.8-.4 11.2-.8 12-1 .8-.2 6.2-.6 12-1s10.6-.8 10.7-.9c.2-.1 1.7-.2 3.5-.2 3.3.1 3.3.1 5.5 8.6zm203.7-7.5c1.2.2 7.1.6 13.1 1 6.1.4 12.3.8 13.9 1 1.5.2 6.7.6 11.5 1 4.7.4 10.2.8 12.1 1 1.9.2 7.6.6 12.5 1 5 .4 10.6.8 12.5 1 1.9.2 8 .6 13.5 1 9.8.7 13.5 1.2 14 1.7.2.3-7.9 14.6-12.6 22.3-1 1.6-2.3 3.9-2.9 5-.5 1.1-2.2 4.1-3.7 6.7-1.5 2.6-6.1 10.5-10.2 17.5s-10.1 17.2-13.3 22.6c-3.2 5.3-5.8 10-5.8 10.3 0 .3-.8 1.8-1.9 3.2-1 1.5-2.9 4.7-4.3 7.2-12.6 22.4-39.8 68.1-40.4 67.8-.5-.2-3-3.9-5.6-8.2-12.2-20.3-28.2-35.8-48.9-47.5l-5.6-3.1 4.9-17.8c4.9-17.8 12.6-46.4 13.3-49.2.2-.8 3.2-11.8 6.6-24.3l6.3-22.9 9.5.7c5.2.4 10.4.8 11.5 1z"/></svg>