<?xml version="1.0" encoding="UTF-8" standalone="no"?>
<!-- Created with Inkscape (http://www.inkscape.org/) -->

<svg
   xmlns:dc="http://purl.org/dc/elements/1.1/"
   xmlns:cc="http://creativecommons.org/ns#"
   xmlns:rdf="http://www.w3.org/1999/02/22-rdf-syntax-ns#"
   xmlns:svg="http://www.w3.org/2000/svg"
   xmlns="http://www.w3.org/2000/svg"
   xmlns:sodipodi="http://sodipodi.sourceforge.net/DTD/sodipodi-0.dtd"
   xmlns:inkscape="http://www.inkscape.org/namespaces/inkscape"
   width="66.905952mm"
   height="29.633333mm"
   viewBox="0 0 66.905952 29.633333"
   version="1.1"
   id="svg8"
   sodipodi:docname="debris.svg"
   inkscape:export-filename="C:\Users\carli\Desktop\PaperParachutes\resources\helicopterSource.png"
   inkscape:export-xdpi="72.129997"
   inkscape:export-ydpi="72.129997"
   inkscape:version="0.92.3 (2405546, 2018-03-11)">
  <defs
     id="defs2">
    <filter
       inkscape:label="Blur"
       inkscape:menu="Scatter"
       inkscape:menu-tooltip="Gives a turbulent pointillist HSL sensitive transparency"
       style="color-interpolation-filters:sRGB"
       id="filter4753"
       height="2.2"
       y="-0.69999999"
       width="1.2"
       x="-0.1">
      <feGaussianBlur
         stdDeviation="5"
         result="fbSourceGraphic"
         id="feGaussianBlur4745" />
      <feGaussianBlur
         stdDeviation="0.01"
         in="SourceGraphic"
         result="result1"
         id="feGaussianBlur4747" />
      <feComposite
         in2="result1"
         operator="arithmetic"
         in="fbSourceGraphic"
         k2="0.5"
         k3="0.5"
         result="result2"
         id="feComposite4749"
         k1="0"
         k4="0" />
      <feBlend
         in2="fbSourceGraphic"
         mode="normal"
         result="fbSourceGraphic"
         id="feBlend4751" />
      <feColorMatrix
         result="fbSourceGraphicAlpha"
         in="fbSourceGraphic"
         values="0 0 0 -1 0 0 0 0 -1 0 0 0 0 -1 0 0 0 0 1 0"
         id="feColorMatrix4853" />
      <feTurbulence
         id="feTurbulence4855"
         seed="50"
         type="fractalNoise"
         baseFrequency="1"
         numOctaves="3"
         result="result1" />
      <feColorMatrix
         id="feColorMatrix4857"
         type="luminanceToAlpha"
         in="fbSourceGraphic"
         result="result0" />
      <feColorMatrix
         id="feColorMatrix4859"
         result="result2"
         values="1 0 0 0 0 0 1 0 0 0 0 0 1 0 0 0 0 0 0.5 0 " />
      <feComposite
         in2="result2"
         id="feComposite4861"
         result="result3"
         operator="over"
         in="result1" />
      <feColorMatrix
         id="feColorMatrix4863"
         result="result91"
         values="1 0 0 0 0 0 1 0 0 0 0 0 1 0 0 0 0 0 5 -3.2" />
      <feComposite
         in2="result91"
         id="feComposite4865"
         operator="arithmetic"
         k1="1.5"
         result="result93"
         k2="0"
         k3="0"
         k4="0" />
      <feComposite
         in2="result93"
         id="feComposite4867"
         in="fbSourceGraphic"
         operator="out"
         result="result4" />
      <feComposite
         in2="result4"
         id="feComposite4869"
         operator="arithmetic"
         k2="0.5"
         k1="1"
         result="result94"
         k3="0"
         k4="0" />
      <feDisplacementMap
         in2="result1"
         id="feDisplacementMap4871"
         scale="15"
         xChannelSelector="R"
         yChannelSelector="A"
         result="fbSourceGraphic" />
      <feColorMatrix
         result="fbSourceGraphicAlpha"
         in="fbSourceGraphic"
         values="0 0 0 -1 0 0 0 0 -1 0 0 0 0 -1 0 0 0 0 1 0"
         id="feColorMatrix4873" />
      <feGaussianBlur
         id="feGaussianBlur4875"
         stdDeviation="0.5 0.5"
         result="blur"
         in="fbSourceGraphic" />
    </filter>
    <filter
       inkscape:label="Ink Paint"
       inkscape:menu="Textures"
       inkscape:menu-tooltip="Ink paint on paper with some turbulent color shift"
       height="2.3"
       y="-0.69999999"
       width="1.3"
       x="-0.15000001"
       style="color-interpolation-filters:sRGB"
       id="filter4657">
      <feTurbulence
         type="fractalNoise"
         baseFrequency="0.07"
         numOctaves="4"
         result="result0"
         id="feTurbulence4645" />
      <feDisplacementMap
         in2="result0"
         in="SourceGraphic"
         xChannelSelector="R"
         yChannelSelector="G"
         scale="10"
         result="result2"
         id="feDisplacementMap4647" />
      <feBlend
         result="result5"
         in="result2"
         mode="multiply"
         in2="result2"
         id="feBlend4649" />
      <feGaussianBlur
         stdDeviation="10"
         in="result2"
         result="result4"
         id="feGaussianBlur4651" />
      <feComposite
         operator="arithmetic"
         in2="result4"
         in="result0"
         k3="0.5"
         k1="2"
         result="result6"
         id="feComposite4653"
         k2="0"
         k4="0" />
      <feComposite
         operator="in"
         in2="result5"
         in="result6"
         result="result7"
         id="feComposite4655" />
    </filter>
    <filter
       style="color-interpolation-filters:sRGB"
       inkscape:label="Blur"
       id="filter4641"
       y="-0.80000001"
       height="2.2">
      <feGaussianBlur
         stdDeviation="2 2"
         result="blur"
         id="feGaussianBlur4639" />
    </filter>
    <filter
       style="color-interpolation-filters:sRGB"
       inkscape:label="Blur"
       id="filter4637"
       y="-1.1"
       height="2.8"
       width="1.9"
       x="-0.5">
      <feGaussianBlur
         stdDeviation="2 2"
         result="blur"
         id="feGaussianBlur4635" />
    </filter>
    <filter
       style="color-interpolation-filters:sRGB"
       inkscape:label="Blur"
       id="filter4633"
       y="-1.1"
       height="3.2">
      <feGaussianBlur
         stdDeviation="2 2"
         result="blur"
         id="feGaussianBlur4631" />
    </filter>
  </defs>
  <sodipodi:namedview
     id="base"
     pagecolor="#ffffff"
     bordercolor="#666666"
     borderopacity="1.0"
     inkscape:pageopacity="0.0"
     inkscape:pageshadow="2"
     inkscape:zoom="5.6"
     inkscape:cx="150.94376"
     inkscape:cy="7.2293105"
     inkscape:document-units="mm"
     inkscape:current-layer="layer1"
     showgrid="false"
     inkscape:pagecheckerboard="true"
     inkscape:window-width="2848"
     inkscape:window-height="1955"
     inkscape:window-x="139"
     inkscape:window-y="-13"
     inkscape:window-maximized="1"
     fit-margin-top="0"
     fit-margin-left="0"
     fit-margin-right="0"
     fit-margin-bottom="0" />
  <metadata
     id="metadata5">
    <rdf:RDF>
      <cc:Work
         rdf:about="">
        <dc:format>image/svg+xml</dc:format>
        <dc:type
           rdf:resource="http://purl.org/dc/dcmitype/StillImage" />
        <dc:title></dc:title>
      </cc:Work>
    </rdf:RDF>
  </metadata>
  <g
     inkscape:label="Layer 1"
     inkscape:groupmode="layer"
     id="layer1"
     transform="translate(-4.1252675,1.076525)">
    <path
       style="fill:#000000;stroke-width:1"
       d="m 14.318639,26.890036 c -1.487803,-1.597652 -1.521226,-1.680579 -0.805973,-1.999734 0.616655,-0.27516 0.976283,-0.10829 2.071556,0.961216 1.270787,1.240889 1.427035,1.294179 3.794635,1.294179 h 2.469274 l 0.951602,-1.940278 c 0.726386,-1.481073 0.831581,-1.940278 0.444479,-1.940278 -1.561253,0 -6.178487,-1.864461 -7.572782,-3.057926 -4.151492,-3.553522 -3.066898,-7.977275 2.699075,-11.008766 0.960979,-0.50524 7.248937,-2.161085 8.206572,-2.161085 0.380925,0 1.198198,-0.555625 1.816163,-1.234722 0.617965,-0.679098 1.336189,-1.234723 1.596055,-1.234723 0.316045,0 0.472483,-0.467215 0.472483,-1.41111 V 1.745697 H 17.194868 C 5.242117,1.745697 3.949169,1.690427 4.14209,1.187678 4.259863,0.880767 4.356222,0.563267 4.356222,0.482122 c 0,-0.08114 5.873751,-0.147536 13.052778,-0.147536 12.817593,0 13.052778,-0.01271 13.052778,-0.705555 0,-0.470371 0.235185,-0.705556 0.705556,-0.705556 0.47037,0 0.705555,0.235185 0.705555,0.705556 0,0.693349 0.235186,0.705555 13.594356,0.705555 13.48504,0 13.591321,0.0057 13.216756,0.705556 -0.367288,0.686281 -0.738653,0.705555 -13.594356,0.705555 H 31.872889 v 1.411112 1.41111 h 5.808116 5.808116 l 0.901735,1.322917 0.901739,1.322917 -1.420985,0.108615 -1.420982,0.108615 1.039396,0.874597 1.0394,0.874597 9.105762,-0.913164 c 5.008168,-0.502241 9.423259,-0.980954 9.811315,-1.063808 0.43132,-0.09209 1.3003,-1.181981 2.235715,-2.804076 l 1.530156,-2.653432 h 1.909427 c 1.050185,0 1.909424,0.05641 1.909424,0.125365 0,0.06895 -0.714375,1.758786 -1.5875,3.755191 -0.873125,1.996404 -1.5875,3.904612 -1.5875,4.240461 0,0.335849 0.394875,1.503513 0.877496,2.594809 l 0.877496,1.984174 h -1.923087 c -1.798782,0 -2.010837,-0.09407 -3.280625,-1.455355 l -1.357542,-1.455354 -5.74476,1.645124 c -7.831586,2.242727 -12.058033,4.04331 -14.205346,6.051868 -2.047109,1.914831 -5.15178,3.448067 -8.214918,4.056922 -2.161241,0.429586 -2.259053,0.4947 -2.475396,1.647912 -0.123885,0.660359 -0.312296,1.427505 -0.418691,1.704768 -0.162047,0.422286 0.614366,0.504115 4.783185,0.504115 4.741446,0 4.976632,0.03334 4.976632,0.705555 0,0.692732 -0.235186,0.705556 -12.939929,0.705556 H 15.870809 Z m 16.285817,-0.04257 c 0.101375,-0.164028 0.290821,-0.96427 0.420992,-1.778315 l 0.236675,-1.480083 -3.12407,0.102621 -3.12407,0.10262 -0.798077,1.411111 c -0.438942,0.776111 -0.800688,1.530173 -0.80388,1.675694 -0.0081,0.367154 6.964882,0.334532 7.19243,-0.03365 z M 21.835898,16.832595 c 0.562699,-0.618313 4.78845,-8.105809 4.651822,-8.242438 -0.280197,-0.280197 -5.074309,0.979821 -6.977216,1.833794 -3.427705,1.538263 -5.311854,4.447623 -4.211668,6.50334 0.402088,0.751307 0.570463,0.780693 3.277239,0.571962 1.580806,-0.121903 3.034645,-0.419224 3.259823,-0.666658 z m 8.722652,-4.331841 c 0.916915,-1.84583 1.667117,-3.43333 1.667117,-3.527778 0,-0.09445 -0.719575,-0.171723 -1.599054,-0.171723 h -1.599055 l -1.575946,3.39547 c -0.86677,1.867509 -1.575945,3.455009 -1.575945,3.527778 0,0.07277 0.678548,0.132307 1.507883,0.132307 h 1.507884 z"
       id="path894"
       inkscape:connector-curvature="0" />
    <path
       inkscape:connector-curvature="0"
       id="path4623"
       d="m 23.147184,14.996418 c 0.0503,-0.35178 0.23814,-0.60614 0.55665,-0.7654 0.0208,-0.0104 0.0471,0.006 0.0696,0 0.0712,-0.0178 0.13917,-0.0464 0.20875,-0.0696 0.30153,-0.0464 0.60628,-0.0752 0.90457,-0.13916 0.0321,-0.007 0.037,-0.0655 0.0696,-0.0696 0.16111,-0.0201 0.32472,0 0.48708,0 0.32472,0 0.64944,0 0.97415,0 0.0854,0 0.61123,-0.005 0.62625,0 0.0492,0.0164 0.0232,0.11597 0.0696,0.13916 0.0622,0.0311 0.14273,-0.022 0.20875,0 0.022,0.007 -0.0104,0.0488 0,0.0696 0.0147,0.0293 0.0464,0.0464 0.0696,0.0696 0,0.0464 -0.0172,0.0961 0,0.13916 0.0311,0.0776 0.11888,0.12762 0.13916,0.20875 0.0337,0.13501 0,0.27833 0,0.41749 0,0.36812 0.0329,0.75458 -0.0696,1.11332 -0.009,0.0315 -0.0499,0.0433 -0.0696,0.0696 -0.0828,0.11039 -0.30863,0.47807 -0.34792,0.55665 -0.0328,0.0656 -0.0123,0.16293 -0.0696,0.20875 -0.0747,0.0597 -0.2107,0.002 -0.27832,0.0696 -0.11003,0.11002 -0.1075,0.29936 -0.20875,0.41749 -0.0477,0.0557 -0.14906,0.0269 -0.20875,0.0696 -0.63132,0.45094 0.14845,0.1738 -0.76541,0.41749 -0.1848,0.0493 -0.3711,0.0928 -0.55666,0.13917 -0.0928,0.0232 -0.18365,0.0561 -0.27832,0.0696 -0.0689,0.01 -0.13917,0 -0.20875,0 -0.0696,0 -0.13917,0 -0.20875,0 -0.0464,0 -0.0952,-0.0147 -0.13916,0 -0.0984,0.0328 -0.1786,0.11067 -0.27833,0.13916 -0.0669,0.0191 -0.13917,0 -0.20875,0 -0.27833,0 -0.55666,0 -0.83499,0 -0.16236,0 -0.32552,0.0162 -0.48708,0 -0.073,-0.007 -0.13759,-0.0518 -0.20874,-0.0696 -0.20746,-0.0519 -0.42338,-0.0715 -0.62624,-0.13916 -0.14761,-0.0492 -0.27449,-0.14746 -0.4175,-0.20875 -0.0213,-0.009 -0.0464,0 -0.0696,0 -0.0696,-0.0232 -0.14314,-0.0368 -0.20875,-0.0696 -0.0293,-0.0147 -0.0464,-0.0464 -0.0696,-0.0696 -0.0696,-0.0696 -0.13916,-0.13916 -0.20875,-0.20874 -0.0696,-0.0696 -0.1253,-0.1566 -0.20874,-0.20875 -0.10592,-0.0662 -0.24628,-0.0666 -0.34791,-0.13917 -0.0719,-0.0514 -0.25652,-0.43618 -0.27834,-0.48707 -0.0289,-0.0674 -0.0368,-0.14314 -0.0696,-0.20875 -0.0374,-0.0748 -0.1081,-0.1311 -0.13916,-0.20874 -0.0172,-0.0431 0,-0.0928 0,-0.13916 0,-0.0928 0,-0.18556 0,-0.27833 0,-0.0928 0,-0.18555 0,-0.27833 0,-0.0696 -0.01,-0.13986 0,-0.20875 0.0135,-0.0947 0.0561,-0.18365 0.0696,-0.27832 0.036,-0.25216 -0.0749,-0.26775 0.0696,-0.55666 0.0232,-0.0464 0.0998,-0.0358 0.13916,-0.0696 0.12453,-0.10673 0.24951,-0.21671 0.34792,-0.34791 0.044,-0.0587 0.0256,-0.15007 0.0696,-0.20875 0.0984,-0.1312 0.25986,-0.20954 0.34791,-0.34791 0.0787,-0.12376 0.0539,-0.29812 0.13916,-0.41749 0.0426,-0.0597 0.15148,-0.0238 0.20875,-0.0696 0.46388,-0.3711 -0.20875,-0.0696 0.34791,-0.34791 0.41877,-0.20938 0.25734,-0.057 0.62625,-0.27833 0.0281,-0.0169 0.0464,-0.0464 0.0696,-0.0696 0.0696,-0.0232 0.14314,-0.0368 0.20874,-0.0696 0.0748,-0.0374 0.12941,-0.11272 0.20875,-0.13916 0.13385,-0.0446 0.29131,-0.007 0.4175,-0.0696 0.11735,-0.0587 0.18555,-0.18555 0.27833,-0.27833 0.0232,-0.0232 0.0378,-0.0616 0.0696,-0.0696 0.0675,-0.0169 0.14651,0.0311 0.20874,0 0.0464,-0.0232 0.0281,-0.10805 0.0696,-0.13916 0.26881,-0.20161 0.12525,0.005 0.34792,-0.0696 0.0984,-0.0328 0.18555,-0.0928 0.27832,-0.13917 0.0464,-0.0232 0.096,-0.0408 0.13917,-0.0696 0.0273,-0.0182 0.0378,-0.0616 0.0696,-0.0696 0.0675,-0.0169 0.13916,0 0.20875,0 0.20875,0 0.41749,0 0.62624,0 0.23194,0 0.46388,0 0.69582,0 0.0696,0 0.13917,0 0.20875,0 0.0232,0 0.0488,-0.0104 0.0696,0 0.0748,0.0374 0.13395,0.10177 0.20875,0.13917 0.0207,0.0104 0.0464,0 0.0696,0 0.0696,0 0.1421,-0.02 0.20874,0 0.16919,0.0508 0.32909,0.12975 0.48708,0.20874 0.0748,0.0374 0.13704,0.0961 0.20875,0.13917 0.0445,0.0267 0.0987,0.0372 0.13917,0.0696 0.0768,0.0615 0.13916,0.13916 0.20874,0.20874 0.0232,0.0232 0.0402,0.0549 0.0696,0.0696 0.11172,0.0559 0.23619,0.0833 0.34791,0.13917 0.16017,0.0801 -0.0303,0.0816 0.13917,0.20874 0.0587,0.044 0.15147,0.0238 0.20875,0.0696 0.0653,0.0522 0.0675,0.16572 0.13916,0.20875 0.0597,0.0358 0.14273,-0.022 0.20875,0 0.0793,0.0264 0.1311,0.1081 0.20875,0.13916 0.0431,0.0172 0.0928,0 0.13916,0 0.0696,0.0464 0.13395,0.10177 0.20875,0.13917 0.0207,0.0104 0.0532,-0.0164 0.0696,0 0.0164,0.0164 -0.0207,0.0592 0,0.0696 0.0415,0.0207 0.1153,-0.0398 0.13916,0 0.0608,0.10141 0.0281,0.23717 0.0696,0.34791 0.0294,0.0783 0.11272,0.12941 0.13916,0.20874 0.044,0.13203 -0.0337,0.28249 0,0.4175 0.008,0.0318 0.0616,0.0378 0.0696,0.0696 0.0169,0.0675 0,0.13916 0,0.20874 0,0.23194 0,0.46388 0,0.69582 0,0.4931 -0.0169,-0.11813 0.0696,0.48708 0.01,0.0689 0,0.13916 0,0.20874 0,0.23194 0,0.46388 0,0.69582 0,0.4175 0,0.83499 0,1.25248 0,0.16236 0,0.32472 0,0.48707 0,0.0464 0.008,0.0934 0,0.13917 -0.0195,0.11665 -0.0549,0.23055 -0.0696,0.34791 -0.009,0.0691 0.0311,0.14651 0,0.20874 -0.0232,0.0464 -0.11597,0.0232 -0.13916,0.0696 -0.0311,0.0622 0,0.13917 0,0.20875 -0.0232,0.0928 -0.0204,0.19633 -0.0696,0.27833 -0.0267,0.0445 -0.11597,0.0232 -0.13916,0.0696 -0.0529,0.10578 0.006,0.25705 -0.0696,0.34791 -0.0612,0.0735 -0.19876,0.0165 -0.27833,0.0696 -0.13646,0.091 -0.24118,0.22339 -0.34792,0.34791 -0.15195,0.17728 0.01,0.0969 -0.13916,0.20875 -0.48307,0.36229 0.13849,-0.119 -0.62624,0.20874 -0.0477,0.0204 -0.0232,0.11597 -0.0696,0.13917 -0.0622,0.0311 -0.13917,0 -0.20875,0 -0.0232,0 -0.0696,0.0232 -0.0696,0 0,-0.0232 0.0928,0 0.0696,0 -0.0928,0 -0.18555,0 -0.27833,0 -0.13229,0 -0.42436,0 -0.55666,0 -0.27833,0 -0.5572,0.0174 -0.83499,0 -0.14081,-0.009 -0.27662,-0.0618 -0.41749,-0.0696 -0.2779,-0.0154 -0.55868,0.0335 -0.83499,0 -0.49223,-0.0597 -0.96763,-0.23132 -1.46123,-0.27833 -0.48488,-0.0462 -0.97531,0.0335 -1.46123,0 -0.19081,-0.0131 -0.36671,-0.11682 -0.55666,-0.13916 -0.20732,-0.0244 -0.4175,0 -0.62624,0 -0.0232,0 -0.0469,0.005 -0.0696,0 -0.83092,-0.18465 -0.30642,-0.0589 -1.11332,-0.4175 -0.0212,-0.009 -0.0464,0 -0.0696,0 -0.23194,-0.0696 -0.47924,-0.10045 -0.69583,-0.20874 -0.0748,-0.0374 -0.08,-0.14961 -0.13916,-0.20875 -0.0591,-0.0591 -0.13704,-0.0961 -0.20875,-0.13916 -0.0445,-0.0267 -0.10249,-0.0329 -0.13916,-0.0696 -0.0847,-0.0847 -0.0326,-0.15546 -0.13917,-0.20875 -0.17471,-0.0874 -0.64395,-0.12271 -0.69582,-0.27833 -0.0147,-0.044 0.0147,-0.0952 0,-0.13916 -0.0104,-0.0311 -0.0592,-0.0385 -0.0696,-0.0696 -0.0209,-0.0627 0.0239,-0.38159 0,-0.4175 -0.0288,-0.0431 -0.11597,-0.0232 -0.13917,-0.0696 -0.0311,-0.0622 0,-0.13916 0,-0.20874 0,-0.0696 0,-0.13917 0,-0.20875 0,-0.11222 -0.0149,-0.31311 0,-0.41749 0.0855,-0.59843 0.0312,-0.12495 0.13917,-0.55666 0.006,-0.0225 -0.0104,-0.0488 0,-0.0696 0.18555,-0.3711 0.0696,-0.0696 0.34791,-0.34791 0.0164,-0.0164 -0.0129,-0.0503 0,-0.0696 0.0364,-0.0546 0.10278,-0.0846 0.13917,-0.13916 0.0129,-0.0193 -0.006,-0.0471 0,-0.0696 0.0178,-0.0712 0.0518,-0.13759 0.0696,-0.20875 0.0193,-0.0771 -0.0221,-0.28151 0,-0.34791 0.0164,-0.0492 0.0532,-0.09 0.0696,-0.13916 0.0147,-0.044 0,-0.0928 0,-0.13917"
       style="display:inline;fill:none;stroke:#ab0000;stroke-width:2.4000001;stroke-linecap:round;stroke-linejoin:round;stroke-miterlimit:4;stroke-dasharray:none;stroke-opacity:0.44927596;filter:url(#filter4633)" />
    <path
       inkscape:connector-curvature="0"
       id="path4625"
       d="m 48.487156,18.151357 c 0.76629,0 1.53701,0.0575 2.29886,0 1.20523,1.0535 1.29804,-0.30404 1.97046,-0.38232 0.14397,-0.0168 0.29192,0 0.43788,0 0.073,0 0.14596,0 0.21894,0 0.0365,0 0.13136,-0.0204 0.10946,0 -0.80054,0.74557 -0.0272,-0.0359 -0.98522,0.38232 -0.15472,0.0675 -0.22236,0.20216 -0.32841,0.30586 -0.18875,0.18458 -0.37798,0.38159 -0.43788,0.61173 -0.0392,0.15046 0,0.30586 0,0.45879 0,0.0765 0,0.15293 0,0.22939 0,0.17842 0,0.35684 0,0.53526 0,0.0765 -0.018,0.15397 0,0.22939 0.0365,0.10196 0.073,0.20391 0.10946,0.30586 0.0365,0 0.0979,-0.0242 0.10947,0 0.0346,0.0725 0,0.15293 0,0.2294 0,0.15293 0,0.30586 0,0.45879 0,0.15531 0.094,0.27574 -0.10947,0.38232 -0.10525,0.0551 -0.22315,0.0978 -0.3284,0.15294 -0.33284,0.17436 -0.63423,0.37923 -0.98523,0.53525 -0.004,0.002 -0.62974,0 -0.65682,0 -0.51086,0 -1.02172,0 -1.53258,0 -0.0758,0 -0.64008,0.0133 -0.65681,0 -0.21492,-0.17157 -0.30283,-0.40418 -0.43788,-0.61172 -0.0478,-0.0734 -0.0279,-0.1724 -0.10947,-0.2294 -0.11538,-0.0806 -0.29619,-0.0964 -0.43788,-0.15293 -0.10947,-0.051 -0.21894,-0.10195 -0.32841,-0.15293 0,-0.0255 0.0258,-0.0584 0,-0.0765 -1e-4,-7e-5 -0.32791,1.2e-4 -0.32841,0 -0.80869,-0.18829 -0.0426,-0.1804 -1.09469,-0.22939 -0.32769,-0.0153 -0.65845,0.0228 -0.98523,0 -0.40595,-0.0283 -0.7968,-0.13755 -1.20417,-0.15293 -0.94736,-0.0358 -1.89749,0 -2.84623,0 -0.58384,0 -1.16769,0 -1.75153,0 -1.55463,0 -2.02804,0.0292 -3.94093,-0.22939 -0.2089,-0.0282 -0.35178,-0.17086 -0.54735,-0.2294 -0.0671,-0.0201 -0.16734,0.036 -0.21894,0 -0.0516,-0.0361 0.0456,-0.11312 0,-0.15293 -0.11398,-0.0995 -0.30887,-0.13928 -0.43788,-0.2294 -0.093,-0.065 -0.14001,-0.15587 -0.21894,-0.22939 -0.30625,-0.28522 0.18363,0.32006 -0.32842,-0.30586 -0.53559,-0.65469 0.0792,0.0711 -0.32841,-0.68819 -0.0462,-0.086 -0.17008,-0.14407 -0.21894,-0.22939 -0.0271,-0.0473 0.0143,-0.10295 0,-0.15293 -0.0226,-0.079 -0.073,-0.15294 -0.10947,-0.2294 -0.073,-0.15293 -0.12521,-0.31148 -0.21894,-0.45879 -0.0534,-0.084 -0.17733,-0.14221 -0.21894,-0.2294 -0.0346,-0.0725 0.0384,-0.1578 0,-0.22939 -0.14198,-0.26447 -0.22961,-0.31332 -0.43788,-0.45879 -0.073,-0.051 -0.18061,-0.086 -0.21894,-0.15293 -0.0406,-0.071 0.0215,-0.15442 0,-0.2294 -0.0521,-0.18195 -0.16684,-0.3533 -0.21894,-0.53525 -0.0215,-0.075 0,-0.15293 0,-0.2294 0,-0.20391 0,-0.40781 0,-0.61172 0,-0.0765 0,-0.15293 0,-0.2294 0,-0.12744 -0.0258,-0.25616 0,-0.38232 0.0258,-0.12637 0.11925,-0.14982 0.21894,-0.2294 0.22154,-0.17685 0.43529,-0.3584 0.65682,-0.53525 0.22705,-0.18125 0.0486,0.034 0.43788,-0.30586 0.1961,-0.17122 0.32539,-0.38022 0.54736,-0.53526 0.25802,-0.18023 0.59334,-0.29739 0.87576,-0.45879 1.06424,-0.60822 -0.46406,0.13332 0.76629,-0.38233 0.0443,-0.0185 0.0682,-0.0548 0.10947,-0.0765 0.10525,-0.0551 0.22316,-0.0978 0.32841,-0.15293 0.0413,-0.0216 0.0594,-0.0677 0.10947,-0.0765 0.0642,-0.0112 0.60317,0.0187 0.65682,0 0.26313,-0.0919 0.49314,-0.22954 0.76629,-0.30586 0.10165,-0.0284 0.22043,0.0126 0.32841,0 0.11383,-0.0132 0.22037,-0.0482 0.32841,-0.0765 0.184,-0.0482 0.36491,-0.10195 0.54735,-0.15293 0.21894,-0.051 0.43994,-0.0978 0.65683,-0.15293 0.18467,-0.0469 0.35671,-0.11964 0.54735,-0.15293 0.23528,-0.0411 0.52843,0.0332 0.76629,0 0.08,-0.0112 0.14153,-0.0584 0.21894,-0.0765 0.0346,-0.008 0.073,0 0.10947,0 0.18245,0 0.3649,0 0.54735,0 0.47437,0 0.94874,0 1.42312,0 0.29192,0 0.58384,0 0.87576,0 0.073,0 0.15117,-0.0189 0.21894,0 0.12216,0.0341 0.2036,0.12387 0.32841,0.15293 0.10385,0.0242 0.22378,-0.0225 0.32841,0 0.37563,0.0807 0.72789,0.20732 1.0947,0.30586 0.10771,0.0289 0.2361,0.0281 0.32841,0.0765 0.20642,0.10814 0.33739,0.27757 0.54735,0.38233 0.0594,0.0296 0.15117,-0.0189 0.21894,0 0.12215,0.0341 0.2134,0.1083 0.32841,0.15293 0.21894,0.0765 0.43788,0.15293 0.65682,0.2294 0.0365,0.0255 0.0665,0.0565 0.10946,0.0765 0.0679,0.0316 0.16998,0.0309 0.21894,0.0765 0.0692,0.0645 0.064,0.15531 0.10947,0.22939 0.0643,0.10477 0.16733,0.19772 0.21894,0.30586 0.0588,0.1233 0.0263,0.26608 0.10947,0.38233 0.0365,0.051 0.19313,0.0224 0.21894,0.0765 0.0577,0.1209 0,0.25488 0,0.38232 0,0.0765 0,0.15293 0,0.2294 0,0.4333 0,0.8666 0,1.29991 0,0.17842 0,0.35683 0,0.53525 0,0.37062 0.0577,0.31981 -0.10947,0.61172 -0.0303,0.0529 -0.0518,0.11263 -0.10946,0.15293 -0.21803,0.15229 -0.42848,0.0309 -0.65682,0.0765 -0.18894,0.0377 -0.35672,0.11964 -0.54735,0.15293 -0.2124,0.0371 -0.44086,-0.0251 -0.65682,0 -0.24665,0.0287 -0.67797,0.20177 -0.87576,0.2294 -0.1789,0.025 -0.36844,-0.025 -0.54735,0 -0.19268,0.0269 -0.35671,0.11964 -0.54734,0.15293 -0.1062,0.0185 -0.22222,-0.0186 -0.32842,0 -0.0501,0.009 -0.0665,0.0565 -0.10946,0.0765 -0.17704,0.0824 -0.34323,0.18746 -0.54736,0.22939 -0.43788,0.051 -0.87576,0.10196 -1.31364,0.15293 -0.10947,0.051 -0.2036,0.12387 -0.32841,0.15293 -0.10385,0.0242 -0.21894,0 -0.32841,0 -0.4014,0 -0.80279,0 -1.20418,0 -0.29192,0 -0.58384,0 -0.87576,0 -0.10947,0 -0.22677,0.0284 -0.32841,0 -0.0958,-0.0268 -0.13966,-0.10678 -0.21894,-0.15293 -0.46493,-0.27062 -1.0782,-0.47973 -1.42312,-0.84111 -0.13602,-0.14252 -0.10946,-0.3736 -0.10946,-0.53526 0,-0.20391 0,-0.40781 0,-0.61172 0,-0.15293 0,-0.30586 0,-0.45879 0,-0.0765 -0.0301,-0.15587 0,-0.2294 0.0448,-0.1096 0.12408,-0.2131 0.21894,-0.30586 0.19219,-0.18795 0.51713,-0.31956 0.76629,-0.45879 1.27435,-0.71211 0.1201,-0.14625 1.0947,-0.53525 0.11424,-0.0456 0.20748,-0.11673 0.32842,-0.15293 0.13828,-0.0414 0.28947,-0.0592 0.43788,-0.0765 0.10799,-0.0126 0.21894,0 0.32841,0 0.10946,0 0.21894,0 0.32841,0 0.10947,0 0.22043,-0.0126 0.32841,0 0.11383,0.0132 0.21526,0.0607 0.32841,0.0765 0.20834,0.0291 0.34892,-0.0621 0.54735,0.0765 0.0816,0.057 0.0279,0.1724 0.10947,0.22939 0.1154,0.0806 0.30509,0.0867 0.43788,0.15293 0.29063,0.145 0.57905,0.42254 0.54735,0.68819 -0.0203,0.17039 -0.21894,0.30586 -0.32841,0.45879"
       style="display:inline;fill:none;stroke:#a04b1f;stroke-width:3;stroke-linecap:butt;stroke-linejoin:miter;stroke-miterlimit:4;stroke-dasharray:none;stroke-opacity:0.51304345;filter:url(#filter4637)" />
    <path
       inkscape:connector-curvature="0"
       id="path4627"
       d="m 39.03669,8.832548 c -0.24584,0.22075 -0.21788,0.27106 -0.71265,0.15998 -0.31026,-0.0696 -0.58741,-0.22916 -0.89081,-0.31996 -0.0563,-0.0168 -0.11878,0 -0.17816,0 -0.29694,0 -0.59387,0 -0.89081,0 -0.0113,0 -1.52827,-0.0325 -1.78164,0 -0.0508,0.007 -1.12769,0.23952 -1.24714,0.31996 -0.10624,0.0716 -0.0745,0.24547 -0.17816,0.31997 -0.50161,0.36033 -1.14924,0.55201 -1.60347,0.95989 -0.17314,0.15547 -0.0522,0.45139 -0.17816,0.63993 -0.0683,0.10225 -0.29694,0.0533 -0.35633,0.15998 -0.24803,0.44547 -0.17816,1.31426 -0.17816,1.75981 0,0.26664 0,0.53328 0,0.79992 0,0.26663 -0.0369,0.53533 0,0.79991 0.0469,0.33677 0.63992,1.35275 0.71266,1.43984 0.12848,0.15382 0.35384,0.21675 0.53449,0.31996 0.47267,0.2701 0.92419,0.57493 1.42531,0.79992 0.10623,0.0477 0.24603,-0.0396 0.35633,0 0.19882,0.0714 0.34296,0.23397 0.53449,0.31996 0.0531,0.0238 0.12505,-0.0238 0.17815,0 0.0751,0.0337 0.0985,0.13614 0.17816,0.15998 0.11269,0.0337 0.23756,0 0.35633,0 0.17816,0 0.35633,0 0.53449,0 0.71265,0 1.4253,0 2.13795,0 0.53449,0 1.06898,0 1.60347,0 0.29697,0 0.84348,0.083 1.06897,-0.15998 0.22169,-0.23888 0.34858,-0.53757 0.53449,-0.79991 0.2299,-0.32443 0.46373,-0.64697 0.71265,-0.95989 0.0488,-0.0614 0.1406,-0.0925 0.17816,-0.15998 0.084,-0.15083 0.0579,-0.3504 0.17815,-0.47994 0.19009,-0.20484 0.52716,-0.27175 0.71265,-0.47995 0.0742,-0.0833 -0.0195,-0.21477 0,-0.31997 0.0403,-0.21688 0.13791,-0.42304 0.17816,-0.63993 0.0195,-0.10521 0,-0.21332 0,-0.31996 0,-0.21332 0,-0.42662 0,-0.63993 0,-0.62796 0,-0.33195 0,-0.9599 0,-0.0533 0.042,-0.12227 0,-0.15998 -0.38927,-0.34954 -0.37434,-0.31996 -0.71265,-0.31996 -0.29694,0 -0.59617,-0.0331 -0.89081,0 -0.18635,0.0209 -0.36012,0.0974 -0.53449,0.15997 -0.41993,0.15083 -0.82965,0.32375 -1.24714,0.47995 -0.29694,0.10666 -0.59387,0.21332 -0.89081,0.31997 -0.0594,0 -0.12183,-0.0168 -0.17816,0 -0.48137,0.14409 -0.93929,0.34902 -1.4253,0.47995 -0.11376,0.0306 -0.24365,-0.0337 -0.35632,0 -0.0797,0.0238 -0.0953,0.14758 -0.17816,0.15997 -0.32977,0.0493 -0.85896,0 -1.24714,0 -0.11878,0 -0.27234,-0.0754 -0.35633,0 -0.13279,0.11924 -0.0608,0.34827 -0.17816,0.47995 -0.13376,0.15014 -0.45014,0.14324 -0.53449,0.31996 -0.0292,0.0613 -0.11514,1.10429 0.17816,1.27987 0.0988,0.0592 0.23987,-0.0209 0.35633,0 0.18415,0.0331 0.35229,0.11907 0.53449,0.15997 0.0576,0.0129 0.11878,0 0.17816,0 0.17815,0 0.3667,0.0538 0.53449,0 0.67577,-0.21672 1.30652,-0.53328 1.95978,-0.79992"
       style="display:inline;fill:#ffcc00;fill-opacity:0.5594203;stroke:#b30000;stroke-width:1;stroke-linecap:butt;stroke-linejoin:miter;stroke-miterlimit:4;stroke-dasharray:none;stroke-opacity:0.35652173;filter:url(#filter4641)" />
    <path
       style="display:inline;fill:#ff6600;fill-opacity:0.46086958;stroke:#ffdd55;stroke-width:2;stroke-linecap:round;stroke-linejoin:miter;stroke-miterlimit:4;stroke-dasharray:none;stroke-opacity:0.52173911;filter:url(#filter4657)"
       d="m 38.229948,4.5270319 c 0,-0.13916 0.0337,-0.28248 0,-0.41749 -0.0378,-0.15123 -0.43939,-0.25999 -0.48708,-0.27833 -0.93546,-0.35979 -0.21738,-0.11099 -1.46123,-0.34791 -0.18788,-0.0358 -0.36848,-0.10495 -0.55666,-0.13916 -0.0685,-0.0125 -0.13916,0 -0.20874,0 -0.44069,0 -0.88138,0 -1.32207,0 -0.23194,0 -0.46389,0 -0.69582,0 -0.11597,0 -0.23284,-0.0144 -0.34792,0 -0.18488,0.0231 -0.31605,0.14889 -0.48708,0.20874 -0.36697,0.12844 -0.74667,0.21851 -1.11331,0.34791 -0.0309,0.0109 -0.0514,0.0423 -0.0696,0.0696 -0.075,0.11253 -0.12426,0.24231 -0.20875,0.34791 -0.10245,0.12807 -0.21355,0.25386 -0.34791,0.34791 -0.10233,0.0716 -0.24627,0.0666 -0.34791,0.13917 -0.0681,0.0486 -0.089,0.14184 -0.13917,0.20874 -0.0197,0.0262 -0.0592,0.0385 -0.0696,0.0696 -0.0147,0.044 0.0172,0.0961 0,0.13917 -0.0311,0.0777 -0.10177,0.13394 -0.13916,0.20874 -0.0559,0.11172 -0.0953,0.23096 -0.13917,0.34791 -0.0257,0.0687 -0.0623,0.13577 -0.0696,0.20875 -0.0162,0.16155 0,0.32471 0,0.48707 0,0.13917 0,0.27833 0,0.41749 0,0.16236 0,0.32472 0,0.48708 0,0.0696 -0.009,0.1397 0,0.20875 0.0147,0.11735 0.0464,0.23194 0.0696,0.34791 0.0232,0.11596 0.02,0.24053 0.0696,0.34791 0.0917,0.19867 0.24314,0.36456 0.34791,0.55665 0.0351,0.0644 0.0157,0.159 0.0696,0.20875 0.25565,0.23598 0.55666,0.41749 0.83499,0.62624 0.0928,0.0696 0.18679,0.13755 0.27833,0.20874 0.11723,0.0912 0.21809,0.2062001 0.34791,0.2783301 0.2903,0.16128 0.60111,0.28262 0.90458,0.41749 0.13236,0.29252 0.37907,0.0681 0.55666,0.13917 0.0609,0.0244 0.0769,0.11842 0.13916,0.13916 0.088,0.0293 0.18555,0 0.27833,0 0.0464,0 0.0928,0 0.13917,0 0.27832,0 0.55665,0 0.83498,0 0.51027,0 1.02055,0 1.53082,0 0.11597,0 0.23194,0 0.34791,0 0.11597,0 0.23352,0.0191 0.34791,0 0.0324,-0.005 0.0402,-0.0549 0.0696,-0.0696 0.0656,-0.0328 0.14007,-0.0438 0.20875,-0.0696 0.11695,-0.0439 0.2342,-0.0875 0.34791,-0.13916 0.0485,-0.0221 0.70994,-0.34355 0.7654,-0.4175 0.071,-0.0946 0.0167,-0.2421201 0.0696,-0.3479101 0.044,-0.088 0.14576,-0.13315 0.20875,-0.20874 0.0535,-0.0642 0.0977,-0.13614 0.13917,-0.20875 0.21182,-0.37067 0.4315,-0.97481 0.48708,-1.39164 0.0245,-0.18392 0,-0.3711 0,-0.55666 0,-0.11597 0,-0.23193 0,-0.3479 0,-0.0232 0.0207,-0.0592 0,-0.0696 -0.36926,-0.18463 -0.16566,0.002 -0.48708,-0.0696 -0.1432,-0.0318 -0.2743,-0.10735 -0.41749,-0.13917 -0.0679,-0.0151 -0.13916,0 -0.20874,0 -0.25514,0 -0.51027,0 -0.7654,0 -0.48708,0 -0.97416,0 -1.46124,0 -0.55666,0 -1.11332,0 -1.66998,0 -0.18555,0 -0.3711,0 -0.55665,0 -0.0928,0 -0.18682,-0.0152 -0.27834,0 -0.0724,0.0121 -0.13759,0.0518 -0.20874,0.0696 -0.11474,0.0287 -0.23572,0.0322 -0.34792,0.0696 -0.0311,0.0104 -0.0402,0.0549 -0.0696,0.0696 -0.12916,0.30025 -0.38086,0.0638 -0.55666,0.13917 -0.55201,0.23658 -0.0677,0.20874 -0.41749,0.20874 -0.0696,0 -0.15954,0.0492 -0.20875,0 -0.1024,-0.10239 -0.0696,-0.67255 -0.0696,-0.83498 0,-0.0696 -0.0418,-0.15308 0,-0.20875 0.044,-0.0587 0.15688,-0.0177 0.20874,-0.0696 0.11827,-0.11826 0.16006,-0.29922 0.27833,-0.41749 0.12421,-0.12421 0.27823,-0.0386 0.4175,-0.0696 0.14319,-0.0318 0.27644,-0.0989 0.41749,-0.13916 0.0223,-0.006 0.0473,0.006 0.0696,0 0.14105,-0.0403 0.27518,-0.10359 0.41749,-0.13917 0.045,-0.0113 0.0928,0 0.13917,0 0.0696,0 0.13916,0 0.20875,0 0.16235,0 0.32471,0 0.48707,0 0.0696,0 0.14125,0.0169 0.20875,0 0.0318,-0.008 0.0378,-0.0616 0.0696,-0.0696 0.0675,-0.0169 0.13917,0 0.20875,0 0.0696,0 0.13917,0 0.20875,0 0.23194,0 0.46388,0 0.69582,0 0.0696,0 0.14274,0.022 0.20875,0 0.0793,-0.0264 0.12941,-0.11272 0.20875,-0.13916 0.066,-0.022 0.13916,0 0.20874,0 0.11598,0 0.23195,0 0.34791,0 0.25514,0 0.51028,0 0.76541,0 0.11597,0 0.2322,-0.008 0.34791,0 1.52779,0.10185 0.0243,-0.0709 1.11331,0.34791 0.15307,0.0589 0.33422,0.0101 0.48708,0.0696 0.27086,0.10533 0.50546,0.28752 0.7654,0.41749 0.43428,0.21714 0.91318,0.30441 1.39164,0.34791 0.74098,0.0674 -0.58704,-0.14676 0.55666,0.13917 0.0675,0.0169 0.14051,-0.0137 0.20874,0 0.0509,0.0102 0.0876,0.0644 0.13917,0.0696 0.25387,0.0254 0.51027,0 0.7654,0 0.44069,0 0.88137,0 1.32206,0 0.34791,0 0.69582,0 1.04373,0 0.16236,0 0.3266,0.0247 0.48707,0 0.14499,-0.0223 0.27153,-0.12457 0.4175,-0.13917 0.3231,-0.0323 0.65104,0.0323 0.97414,0 0.14597,-0.0146 0.27209,-0.11977 0.4175,-0.13916 0.20691,-0.0276 0.41827,0.0181 0.62623,0 0.32678,-0.0284 0.64785,-0.1057 0.97415,-0.13916 1.70496,-0.17487 1.39467,0.0752 2.64412,-0.48708 0.2778,-0.12501 0.58161,-0.29935 0.7654,-0.55665 0.0426,-0.0597 0.0177,-0.15689 0.0696,-0.20875 0.64288,-0.64288 0.4153,-0.33268 0.90457,-0.62624 0.0281,-0.0169 0.0378,-0.0616 0.0696,-0.0696 0.0675,-0.0169 0.14124,0.0169 0.20875,0 0.0417,-0.0104 0.22198,-0.25418 0.27833,-0.27833 0.13483,-0.0578 0.27698,-0.097 0.41749,-0.13916 0.0916,-0.0275 0.18455,-0.0508 0.27833,-0.0696 0.15462,-0.0309 0,0.0928 0.27832,0 0.0793,-0.0264 0.12675,-0.12276 0.20875,-0.13917 0.15921,-0.0318 0.32552,0.0162 0.48707,0 0.073,-0.007 0.1364,-0.0575 0.20875,-0.0696 0.0686,-0.0114 0.13917,0 0.20875,0 0.16235,0 0.32471,0 0.48707,0 0.46388,0 0.92776,0 1.39164,0 0.32472,0 0.64943,0 0.97415,0 0.16236,0 0.32787,0.0318 0.48707,0 0.18838,0.0773 0.16831,-0.17207 0.27833,-0.20874 0.044,-0.0147 0.10637,0.0328 0.13917,0 0.13725,-0.13726 0.0262,-0.26585 0.0696,-0.41749 0.0285,-0.0997 0.10274,-0.18121 0.13916,-0.27833 0.0808,-0.21556 0.0696,-0.23498 0.0696,-0.41749"
       id="path4643"
       inkscape:connector-curvature="0" />
    <path
       style="display:inline;opacity:0.57300002;fill:#ff0000;fill-opacity:0.36811595;stroke:#ffe680;stroke-width:5.16678429;stroke-linecap:round;stroke-linejoin:miter;stroke-miterlimit:4;stroke-dasharray:none;stroke-opacity:1;filter:url(#filter4753)"
       d="m 87.464605,29.606687 c -0.695822,0 -1.413446,0.172826 -2.087462,0 -0.302265,-0.0775 -0.415837,-0.465378 -0.626237,-0.69582 -0.276682,-0.303033 -0.587504,-0.577252 -0.834985,-0.904565 -0.47334,-0.626031 -0.882309,-1.298231 -1.322059,-1.948297 -0.09371,-0.138534 -0.208238,-0.265632 -0.278329,-0.417492 -0.07076,-0.153314 -0.08237,-0.328057 -0.139163,-0.487075 -0.05941,-0.166349 -0.157988,-0.317883 -0.208745,-0.487074 -0.02,-0.06665 0,-0.139164 0,-0.208746 0,-0.06958 0,-0.139164 0,-0.208746 0,-0.162358 0.03402,-0.32832 0,-0.487074 -0.03701,-0.172719 -0.169027,-0.314957 -0.208746,-0.487074 -0.03129,-0.135601 0,-0.278328 0,-0.417492 0,-0.208747 0,-0.417492 0,-0.626239 0,-0.162358 0,-0.324716 0,-0.487074 0,-0.11597 -0.02138,-0.233926 0,-0.34791 0.04873,-0.259923 0.144605,-0.508846 0.208746,-0.765402 0.0056,-0.0225 0,-0.04639 0,-0.06958 0.0232,-0.11597 0.02806,-0.237174 0.06958,-0.34791 0.02936,-0.0783 0.111035,-0.129991 0.139163,-0.208746 0.08894,-0.249046 0.125119,-0.514521 0.208746,-0.765403 0.13544,-0.406322 0.697267,-0.965241 0.904568,-1.113312 0.342249,-0.244464 1.010134,-0.214744 1.39164,-0.278328 0.188661,-0.03144 0.367069,-0.113886 0.556656,-0.139164 0.160933,-0.02146 0.324716,0 0.487074,0 0.162357,0 0.324716,0 0.487075,0 0.556654,0 1.113311,0 1.669968,0 0.202371,0 0.853006,-0.03813 1.113311,0.06958 0.546404,0.226097 1.068093,0.50784 1.600387,0.765402 0.186741,0.09036 0.371105,0.185552 0.556657,0.278328 0.255133,0.09278 0.519764,0.162733 0.765403,0.278328 0.151334,0.07122 0.270229,0.199033 0.417491,0.278328 0.362831,0.195371 0.603306,0.185813 0.904566,0.487075 0.141083,0.141083 0.245258,0.315985 0.347911,0.487074 0.03773,0.06289 0.01773,0.156882 0.06958,0.208746 0.07335,0.07335 0.224959,0.05022 0.278325,0.139164 0.166212,0.277017 0.220655,0.607632 0.347912,0.904566 0.08172,0.19068 0.22216,0.356951 0.278328,0.556656 0.277527,0.98676 0.387154,1.853672 0.487074,2.852863 0.05328,0.532818 0.109461,1.065736 0.139163,1.600388 0.01672,0.301056 -0.03,0.604539 0,0.904565 0.0168,0.168016 0.122362,0.319056 0.139166,0.487075 0.03,0.300024 0,0.603043 0,0.904565 0,0.719016 0,1.438029 0,2.157045 0,0.162356 -0.01699,0.325607 0,0.487074 0.02954,0.280614 0.106195,0.554749 0.139162,0.834982 0.01355,0.115176 0,0.231942 0,0.347912 0,0.394298 0,0.788596 0,1.182894 0,0.904565 0,1.809133 0,2.713698 0,0.139163 0,0.278329 0,0.417492 0,0.0232 -0.02074,0.05921 0,0.06958 0.04149,0.02074 0.09324,-0.0066 0.139166,0 0.279331,0.0399 0.560041,0.07572 0.834983,0.139162 0.630375,0.145474 1.235207,0.420505 1.878716,0.487075 1.932664,0.199932 4.285894,0.451762 6.192804,-0.347909 0.60304,-0.255135 1.20609,-0.510267 1.80913,-0.765403 0.41749,-0.208745 0.82594,-0.436665 1.25248,-0.626237 0.20107,-0.08937 0.43446,-0.100872 0.62624,-0.208748 1.11221,-0.625618 3.04143,-2.080408 3.89659,-2.783279 0.95237,-0.782772 1.95253,-1.52455 2.78328,-2.43537 1.18902,-1.303626 2.47981,-3.038147 3.4791,-4.661997 0.58374,-0.948574 1.16922,-1.896172 1.73955,-2.852863 0.14882,-0.249628 0.29571,-0.501531 0.4175,-0.765402 0.0194,-0.04212 0,-0.09278 0,-0.139165 0.0696,-0.162358 0.12296,-0.332662 0.20874,-0.487074 0.0319,-0.05735 0.10983,-0.08049 0.13916,-0.139164 0.0208,-0.04149 -0.005,-0.09306 0,-0.139164 0.0181,-0.163003 0.0594,-0.323387 0.0696,-0.487074 0.017,-0.271296 0,-0.614463 0,-0.904566 0,-0.11597 0,-0.23194 0,-0.34791 0,-0.02319 0,-0.04639 0,-0.06958 0,-0.02319 0.0228,-0.06503 0,-0.06958 -0.11372,-0.02274 -0.23352,0.01907 -0.34791,0 -0.16656,-0.02776 -0.32237,-0.101971 -0.48708,-0.139164 -0.55464,-0.125242 -1.11196,-0.23861 -1.66997,-0.34791 -4.85188,-0.950368 -3.74989,-0.929805 -7.23653,-1.113312 -0.16214,-0.0085 -0.32471,0 -0.48707,0 -0.46389,0 -0.92777,0 -1.39164,0 -0.0464,0 -0.0977,-0.02075 -0.13916,0 -0.28205,0.141023 -1.50412,0.89443 -1.73955,1.04373 -0.65201,0.413466 -1.2651,0.892897 -1.9483,1.252477 -0.20933,0.110164 -0.47505,0.05425 -0.69582,0.139164 -0.38725,0.148943 -0.73282,0.391222 -1.11331,0.556656 -0.15486,0.06733 -0.32472,0.09278 -0.48708,0.139164 -0.27833,0.162358 -0.54019,0.357013 -0.83498,0.487074 -0.49676,0.21916 -1.02242,0.366011 -1.53082,0.556656 -0.2339,0.08771 -0.48218,0.148853 -0.69581,0.278329 -0.900909,0.546004 -1.901561,1.240009 -2.574537,2.08746 -0.344064,0.433267 -0.608541,0.924233 -0.904568,1.391641 -0.704731,1.112735 -1.305404,2.294261 -1.878713,3.479102 -0.189807,0.392266 -0.34712,0.800798 -0.556657,1.182894 -0.185613,0.338471 -0.429855,0.641808 -0.626237,0.974148 -0.105537,0.178602 -0.185552,0.371105 -0.278329,0.556657 -0.162359,0.324715 -0.300288,0.662839 -0.487074,0.974148 -0.162308,0.270515 -0.35288,0.524574 -0.556657,0.765403 -0.07491,0.08853 -0.226464,0.105018 -0.278328,0.208745 -0.05586,0.111715 -0.0833,0.236191 -0.139163,0.347909 -0.01466,0.02934 -0.04639,0.04639 -0.06958,0.06958 -0.06958,0.06958 -0.130577,0.148971 -0.208745,0.208745 -0.316984,0.242401 -0.652897,0.459108 -0.974149,0.69582 -0.119562,0.0881 -0.213823,0.214477 -0.347911,0.278328 -0.03828,0.01823 -1.956181,0.736865 -2.087459,0.765403 -0.203983,0.04434 -0.417875,-0.01262 -0.62624,0 -0.557561,0.03379 -1.112197,0.109014 -1.669968,0.139166 -0.301082,0.01627 -0.603043,0 -0.904565,0 -0.765403,0 -1.530805,0 -2.296208,0 -0.834985,0 -1.669968,0 -2.504953,0 -0.347908,0 -0.69582,0 -1.043731,0 -0.143132,0 -0.38473,0.02558 -0.487074,0 -0.230791,-0.0577 -0.297656,-0.347912 -0.626237,-0.347912"
       id="path4659"
       inkscape:connector-curvature="0"
       transform="matrix(0.80047634,0,0,0.74873961,-47.344483,-10.706747)" />
  </g>
</svg>
